<?xml version="1.0" encoding="utf-8"?>
<svg version="1.1" xmlns:xlink="http://www.w3.org/1999/xlink" width="53px" height="54px" xmlns="http://www.w3.org/2000/svg">
  <g transform="matrix(1 0 0 1 -1218 -102 )">
    <path d="M 44.1666666666667 15.4285714285714  C 44.1666666666667 18.3816964285714  43.2580295138889 21.1138392857143  41.4407552083333 23.625  C 42.5219184027778 23.90625  43.5513237847222 24.2879464285714  44.5289713541667 24.7700892857143  C 45.5066189236111 25.2522321428571  46.5302734375 25.9854910714286  47.5999348958333 26.9698660714286  C 48.6695963541667 27.9542410714286  49.583984375 29.1143973214286  50.3430989583333 30.4503348214286  C 51.1022135416667 31.7862723214286  51.7348090277778 33.5139508928571  52.2408854166667 35.6333705357143  C 52.7469618055556 37.7527901785714  53 40.1283482142857  53 42.7600446428571  C 53 45.8537946428571  51.8498263888889 48.5005580357143  49.5494791666667 50.7003348214286  C 47.2491319444444 52.9001116071429  44.4772135416667 54  41.2337239583333 54  L 11.7662760416667 54  C 8.52278645833333 54  5.75086805555556 52.9001116071429  3.45052083333333 50.7003348214286  C 1.15017361111111 48.5005580357143  0 45.8537946428571  0 42.7600446428571  C 0 40.1283482142857  0.253038194444444 37.7527901785714  0.759114583333333 35.6333705357143  C 1.26519097222222 33.5139508928571  1.89778645833333 31.7862723214286  2.65690104166667 30.4503348214286  C 3.416015625 29.1143973214286  4.33040364583333 27.9542410714286  5.40006510416667 26.9698660714286  C 6.4697265625 25.9854910714286  7.49338107638889 25.2522321428571  8.47102864583333 24.7700892857143  C 9.44867621527778 24.2879464285714  10.4780815972222 23.90625  11.5592447916667 23.625  C 9.74197048611111 21.1138392857143  8.83333333333333 18.3816964285714  8.83333333333333 15.4285714285714  C 8.83333333333333 13.3392857142857  9.29915364583333 11.3454241071429  10.2307942708333 9.44698660714286  C 11.1624348958333 7.54854910714286  12.421875 5.90625  14.0091145833333 4.52008928571428  C 15.5963541666667 3.13392857142857  17.4768880208333 2.03404017857143  19.6507161458333 1.22042410714286  C 21.8245442708333 0.406808035714283  24.1076388888889 0  26.5 0  C 28.8923611111111 0  31.1754557291667 0.406808035714283  33.3492838541667 1.22042410714286  C 35.5231119791667 2.03404017857143  37.4036458333333 3.13392857142857  38.9908854166667 4.52008928571428  C 40.578125 5.90625  41.8375651041667 7.54854910714286  42.7692057291667 9.44698660714286  C 43.7008463541667 11.3454241071429  44.1666666666667 13.3392857142857  44.1666666666667 15.4285714285714  Z M 35.8681640625 7.24720982142857  C 33.2802734375 4.98716517857143  30.1575520833333 3.85714285714286  26.5 3.85714285714286  C 22.8424479166667 3.85714285714286  19.7197265625 4.98716517857143  17.1318359375 7.24720982142857  C 14.5439453125 9.50725446428572  13.25 12.234375  13.25 15.4285714285714  C 13.25 18.6227678571429  14.5439453125 21.3498883928571  17.1318359375 23.6099330357143  C 19.7197265625 25.8699776785714  22.8424479166667 27  26.5 27  C 30.1575520833333 27  33.2802734375 25.8699776785714  35.8681640625 23.6099330357143  C 38.4560546875 21.3498883928571  39.75 18.6227678571429  39.75 15.4285714285714  C 39.75 12.234375  38.4560546875 9.50725446428572  35.8681640625 7.24720982142857  Z M 11.7662760416667 50  L 41.2337239583333 50  C 43.2580295138889 50.1428571428571  44.9890407986111 49.4246651785714  46.4267578125 47.98828125  C 47.8644748263889 46.5518973214286  48.5833333333333 44.8091517857143  48.5833333333333 42.7600446428571  C 48.5833333333333 37.9587053571429  47.6804470486111 34.171875  45.8746744791667 31.3995535714286  C 44.0689019097222 28.6272321428571  41.4752604166667 27.1707589285714  38.09375 27.0301339285714  C 34.7582465277778 29.5814732142857  30.8936631944444 30.8571428571429  26.5 30.8571428571429  C 22.1063368055556 30.8571428571429  18.2417534722222 29.5814732142857  14.90625 27.0301339285714  C 11.5247395833333 27.1707589285714  8.93109809027778 28.6272321428571  7.12532552083333 31.3995535714286  C 5.31955295138889 34.171875  4.41666666666667 37.9587053571429  4.41666666666667 42.7600446428571  C 4.41666666666667 44.8091517857143  5.13552517361111 46.5518973214286  6.5732421875 47.98828125  C 8.01095920138889 49.4246651785714  9.74197048611111 50.1428571428571  11.7662760416667 50  Z " fill-rule="nonzero" fill="#333333" stroke="none" transform="matrix(1 0 0 1 1218 102 )" />
  </g>
</svg>