<?xml version="1.0" encoding="utf-8"?>
<svg version="1.1" xmlns:xlink="http://www.w3.org/1999/xlink" width="50px" height="39px" xmlns="http://www.w3.org/2000/svg">
  <g transform="matrix(1 0 0 1 -8 -10 )">
    <path d="M 49.4698660714286 32.4353693181818  C 49.8232886904762 32.7862215909091  50 33.2017045454545  50 33.6818181818182  L 50 37.2272727272727  C 50 37.7073863636364  49.8232886904762 38.1228693181818  49.4698660714286 38.4737215909091  C 49.116443452381 38.8245738636364  48.6979166666667 39  48.2142857142857 39  L 1.78571428571429 39  C 1.30208333333333 39  0.883556547619048 38.8245738636364  0.530133928571429 38.4737215909091  C 0.17671130952381 38.1228693181818  0 37.7073863636364  0 37.2272727272727  L 0 33.6818181818182  C 0 33.2017045454545  0.17671130952381 32.7862215909091  0.530133928571429 32.4353693181818  C 0.883556547619048 32.0845170454545  1.30208333333333 31.9090909090909  1.78571428571429 32  L 48.2142857142857 32  C 48.6979166666667 31.9090909090909  49.116443452381 32.0845170454545  49.4698660714286 32.4353693181818  Z M 49.4698660714286 21.7990056818182  C 49.8232886904762 22.1498579545455  50 22.5653409090909  50 23.0454545454545  L 50 26.5909090909091  C 50 27.0710227272727  49.8232886904762 27.4865056818182  49.4698660714286 27.8373579545455  C 49.116443452381 28.1882102272727  48.6979166666667 28.3636363636364  48.2142857142857 28  L 1.78571428571429 28  C 1.30208333333333 28.3636363636364  0.883556547619048 28.1882102272727  0.530133928571429 27.8373579545455  C 0.17671130952381 27.4865056818182  0 27.0710227272727  0 26.5909090909091  L 0 23.0454545454545  C 0 22.5653409090909  0.17671130952381 22.1498579545455  0.530133928571429 21.7990056818182  C 0.883556547619048 21.4481534090909  1.30208333333333 21.2727272727273  1.78571428571429 21  L 48.2142857142857 21  C 48.6979166666667 21.2727272727273  49.116443452381 21.4481534090909  49.4698660714286 21.7990056818182  Z M 49.4698660714286 11.1626420454545  C 49.8232886904762 11.5134943181818  50 11.9289772727273  50 12.4090909090909  L 50 15.9545454545455  C 50 16.4346590909091  49.8232886904762 16.8501420454545  49.4698660714286 17.2009943181818  C 49.116443452381 17.5518465909091  48.6979166666667 17.7272727272727  48.2142857142857 18  L 1.78571428571429 18  C 1.30208333333333 17.7272727272727  0.883556547619048 17.5518465909091  0.530133928571429 17.2009943181818  C 0.17671130952381 16.8501420454545  0 16.4346590909091  0 15.9545454545455  L 0 12.4090909090909  C 0 11.9289772727273  0.17671130952381 11.5134943181818  0.530133928571429 11.1626420454545  C 0.883556547619048 10.8117897727273  1.30208333333333 10.6363636363636  1.78571428571429 11  L 48.2142857142857 11  C 48.6979166666667 10.6363636363636  49.116443452381 10.8117897727273  49.4698660714286 11.1626420454545  Z M 49.4698660714286 0.526278409090911  C 49.8232886904762 0.877130681818176  50 1.29261363636363  50 1.77272727272727  L 50 5.31818181818182  C 50 5.79829545454545  49.8232886904762 6.21377840909091  49.4698660714286 6.56463068181818  C 49.116443452381 6.91548295454545  48.6979166666667 7.09090909090909  48.2142857142857 7  L 1.78571428571429 7  C 1.30208333333333 7.09090909090909  0.883556547619048 6.91548295454545  0.530133928571429 6.56463068181818  C 0.17671130952381 6.21377840909091  0 5.79829545454545  0 5.31818181818182  L 0 1.77272727272727  C 0 1.29261363636363  0.17671130952381 0.877130681818176  0.530133928571429 0.526278409090911  C 0.883556547619048 0.175426136363633  1.30208333333333 0  1.78571428571429 0  L 48.2142857142857 0  C 48.6979166666667 0  49.116443452381 0.175426136363633  49.4698660714286 0.526278409090911  Z " fill-rule="nonzero" fill="#000000" stroke="none" transform="matrix(1 0 0 1 8 10 )" />
  </g>
</svg>