<?xml version="1.0" encoding="utf-8"?>
<svg version="1.1" xmlns:xlink="http://www.w3.org/1999/xlink" width="50px" height="50px" xmlns="http://www.w3.org/2000/svg">
  <g transform="matrix(1 0 0 1 -1204 -1225 )">
    <path d="M 46.6471354166667 12.451171875  C 48.8823784722222 16.2814670138889  50 20.4644097222222  50 25  C 50 29.5355902777778  48.8823784722222 33.7185329861111  46.6471354166667 37.548828125  C 44.4118923611111 41.3791232638889  41.3791232638889 44.4118923611111  37.548828125 46.6471354166667  C 33.7185329861111 48.8823784722222  29.5355902777778 50  25 50  C 22.5911458333333 50  20.2256944444444 49.6527777777778  17.9036458333333 48.9583333333333  C 19.1840277777778 46.9401041666667  20.0303819444444 45.1605902777778  20.4427083333333 43.6197916666667  C 20.6380208333333 42.8819444444444  21.2239583333333 40.5924479166667  22.2005208333333 36.7513020833333  C 22.6345486111111 37.59765625  23.4266493055556 38.330078125  24.5768229166667 38.9485677083333  C 25.7269965277778 39.5670572916667  26.9639756944444 39.8763020833333  28.2877604166667 39.8763020833333  C 30.9136284722222 39.8763020833333  33.2573784722222 39.1330295138889  35.3190104166667 37.646484375  C 37.3806423611111 36.1599392361111  38.9756944444444 34.1145833333333  40.1041666666667 31.5104166666667  C 41.2326388888889 28.90625  41.796875 25.9765625  41.796875 22.7213541666667  C 41.796875 20.2473958333333  41.1512586805556 17.9253472222222  39.8600260416667 15.7552083333333  C 38.5687934027778 13.5850694444444  36.6970486111111 11.81640625  34.2447916666667 10.44921875  C 31.7925347222222 9.08203125  29.0256076388889 8.3984375  25.9440104166667 8.3984375  C 23.6653645833333 8.3984375  21.5386284722222 8.71310763888888  19.5638020833333 9.34244791666667  C 17.5889756944444 9.97178819444444  15.9125434027778 10.8072916666667  14.5345052083333 11.8489583333333  C 13.1564670138889 12.890625  11.9737413194444 14.0896267361111  10.986328125 15.4459635416667  C 9.99891493055556 16.8023003472222  9.27191840277778 18.2074652777778  8.80533854166667 19.6614583333333  C 8.33875868055556 21.1154513888889  8.10546875 22.5694444444444  8.10546875 24.0234375  C 8.10546875 26.2803819444444  8.53949652777778 28.2660590277778  9.40755208333333 29.98046875  C 10.2756076388889 31.6948784722222  11.5451388888889 32.8993055555556  13.2161458333333 33.59375  C 13.8671875 33.8541666666667  14.2795138888889 33.6371527777778  14.453125 32.9427083333333  C 14.4965277777778 32.7907986111111  14.5833333333333 32.4544270833333  14.7135416666667 31.93359375  C 14.84375 31.4127604166667  14.9305555555556 31.0872395833333  14.9739583333333 30.95703125  C 15.1041666666667 30.4578993055555  14.9848090277778 29.9913194444444  14.6158854166667 29.5572916666667  C 13.5091145833333 28.2335069444444  12.9557291666667 26.5950520833333  12.9557291666667 24.6419270833333  C 12.9557291666667 21.3650173611111  14.0896267361111 18.5492621527778  16.357421875 16.1946614583333  C 18.6252170138889 13.8400607638889  21.5928819444444 12.6627604166667  25.2604166666667 12.6627604166667  C 28.5373263888889 12.6627604166667  31.0926649305556 13.5525173611111  32.9264322916667 15.33203125  C 34.7601996527778 17.1115451388889  35.6770833333333 19.4227430555556  35.6770833333333 22.265625  C 35.6770833333333 25.9548611111111  34.9338107638889 29.0907118055556  33.447265625 31.6731770833333  C 31.9607204861111 34.2556423611111  30.0564236111111 35.546875  27.734375 35.546875  C 26.4105902777778 35.546875  25.3472222222222 35.0748697916667  24.5442708333333 34.130859375  C 23.7413194444444 33.1868489583333  23.4917534722222 32.0529513888889  23.7955729166667 30.7291666666667  C 23.9691840277778 29.9696180555556  24.2567274305556 28.955078125  24.658203125 27.685546875  C 25.0596788194444 26.416015625  25.3851996527778 25.2983940972222  25.634765625 24.3326822916667  C 25.8843315972222 23.3669704861111  26.0091145833333 22.5477430555556  26.0091145833333 21.875  C 26.0091145833333 20.7899305555556  25.7161458333333 19.8893229166667  25.1302083333333 19.1731770833333  C 24.5442708333333 18.45703125  23.7087673611111 18.0989583333333  22.6236979166667 18.0989583333333  C 21.2782118055556 18.0989583333333  20.1388888888889 18.7174479166667  19.2057291666667 19.9544270833333  C 18.2725694444444 21.19140625  17.8059895833333 22.7322048611111  17.8059895833333 24.5768229166667  C 17.8059895833333 26.1610243055556  18.0772569444444 27.4848090277778  18.6197916666667 28.5481770833333  L 15.3971354166667 42.1549479166667  C 15.0282118055556 43.6740451388889  14.8871527777778 45.5946180555556  14.9739583333333 47.9166666666667  C 10.5034722222222 45.9418402777778  6.89019097222222 42.8927951388889  4.13411458333333 38.76953125  C 1.37803819444444 34.6462673611111  0 30.0564236111111  0 25  C 0 20.4644097222222  1.11762152777778 16.2814670138889  3.35286458333333 12.451171875  C 5.58810763888889 8.62087673611111  8.62087673611111 5.58810763888888  12.451171875 3.35286458333333  C 16.2814670138889 1.11762152777777  20.4644097222222 0  25 0  C 29.5355902777778 0  33.7185329861111 1.11762152777777  37.548828125 3.35286458333333  C 41.3791232638889 5.58810763888888  44.4118923611111 8.62087673611111  46.6471354166667 12.451171875  Z " fill-rule="nonzero" fill="#000000" stroke="none" transform="matrix(1 0 0 1 1204 1225 )" />
  </g>
</svg>