<?xml version="1.0" encoding="utf-8"?>
<svg version="1.1" xmlns:xlink="http://www.w3.org/1999/xlink" width="50px" height="50px" xmlns="http://www.w3.org/2000/svg">
  <g transform="matrix(1 0 0 1 -1081 -1298 )">
    <path d="M 34.1959635416667 45.01953125  C 35.6608072916667 44.4986979166667  36.5885416666667 43.9561631944444  36.9791666666667 43.3919270833333  L 34.9609375 37.4348958333333  C 34.0060763888889 37.9123263888889  32.8884548611111 38.1510416666667  31.6080729166667 38.1510416666667  C 30.8268229166667 38.1727430555556  30.1540798611111 38.0588107638889  29.58984375 37.8092447916667  C 29.0256076388889 37.5596788194444  28.6078559027778 37.2178819444444  28.3365885416667 36.7838541666667  C 28.0653211805556 36.3498263888889  27.8754340277778 35.9103732638889  27.7669270833333 35.4654947916667  C 27.6584201388889 35.0206163194444  27.6041666666667 34.5486111111111  27 34.0494791666667  L 27 21.09375  L 35.9700520833333 21.09375  L 35.9700520833333 14.7786458333333  L 27 14.7786458333333  L 27 4.16666666666667  L 21.5169270833333 4.16666666666667  C 21.3433159722222 4.16666666666667  21.2456597222222 4.27517361111111  21.2239583333333 4.4921875  C 21.1154513888889 5.44704861111111  20.9255642361111 6.39105902777777  20.654296875 7.32421875  C 20.3830295138889 8.25737847222222  19.9598524305556 9.28819444444444  19.384765625 10.4166666666667  C 18.8096788194444 11.5451388888889  17.9741753472222 12.5759548611111  16.8782552083333 13.5091145833333  C 15.7823350694444 14.4422743055556  14.4965277777778 15.1801215277778  13.0208333333333 15.72265625  L 13.0208333333333 21.09375  L 18 21.09375  L 18 34.7005208333333  C 17.2526041666667 35.9375  17.4858940972222 37.1853298611111  17.9524739583333 38.4440104166667  C 18.4190538194444 39.7026909722222  19.1243489583333 40.9071180555556  20.068359375 42.0572916666667  C 21.0123697916667 43.2074652777778  22.3253038194444 44.1351996527778  24.0071614583333 44.8404947916667  C 25.6890190972222 45.5457899305556  27.6041666666667 45.8767361111111  29.7526041666667 45.8333333333333  C 31.25 45.8116319444444  32.7311197916667 45.5403645833333  34.1959635416667 45.01953125  Z M 47.2493489583333 2.75065104166667  C 49.0831163194444 4.58441840277777  50 6.79253472222222  50 9.375  L 50 40.625  C 50 43.2074652777778  49.0831163194444 45.4155815972222  47.2493489583333 47.2493489583333  C 45.4155815972222 49.0831163194444  43.2074652777778 50  40.625 50  L 9.375 50  C 6.79253472222222 50  4.58441840277778 49.0831163194444  2.75065104166667 47.2493489583333  C 0.916883680555555 45.4155815972222  0 43.2074652777778  0 40.625  L 0 9.375  C 0 6.79253472222222  0.916883680555555 4.58441840277777  2.75065104166667 2.75065104166667  C 4.58441840277778 0.916883680555552  6.79253472222222 0  9.375 0  L 40.625 0  C 43.2074652777778 0  45.4155815972222 0.916883680555552  47.2493489583333 2.75065104166667  Z " fill-rule="nonzero" fill="#000000" stroke="none" transform="matrix(1 0 0 1 1081 1298 )" />
  </g>
</svg>