<?xml version="1.0" encoding="utf-8"?>
<svg version="1.1" xmlns:xlink="http://www.w3.org/1999/xlink" width="50px" height="50px" xmlns="http://www.w3.org/2000/svg">
  <g transform="matrix(1 0 0 1 -70 -1708 )">
    <path d="M 37.2721354166667 30.419921875  C 37.3806423611111 30.517578125  37.4348958333333 30.6423611111111  37.4348958333333 30.7942708333333  L 37.4348958333333 34.3424479166667  C 37.4348958333333 35.4275173611111  37.0388454861111 36.3932291666667  36.2467447916667 37.2395833333333  C 35.4546440972222 38.0859375  34.4346788194444 38.7424045138889  33.1868489583333 39.208984375  C 31.9390190972222 39.6755642361111  30.6586371527778 40.0282118055556  29.345703125 40.2669270833333  C 28.0327690972222 40.5056423611111  26.7578125 40.625  25.5208333333333 40.625  C 21.0720486111111 40.625  17.3556857638889 39.1167534722222  14.3717447916667 36.1002604166667  C 11.3878038194444 33.0837673611111  9.89583333333333 29.3294270833333  9.89583333333333 24.8372395833333  C 9.89583333333333 20.4318576388889  11.3715277777778 16.7534722222222  14.3229166666667 13.8020833333333  C 17.2743055555556 10.8506944444444  20.9526909722222 9.375  25.3580729166667 9.375  C 26.0959201388889 9.375  26.9151475694444 9.423828125  27.8157552083333 9.521484375  C 28.7163628472222 9.619140625  29.7254774305556 9.814453125  30.8430989583333 10.107421875  C 31.9607204861111 10.400390625  32.9644097222222 10.7693142361111  33.8541666666667 11.2141927083333  C 34.7439236111111 11.6590711805556  35.4926215277778 12.2721354166667  36.1002604166667 13.0533854166667  C 36.7078993055556 13.8346354166667  37.01171875 14.7135416666667  37.01171875 15.6901041666667  L 37.01171875 19.23828125  C 37.01171875 19.5855034722222  36.8381076388889 19.7591145833333  36.4908854166667 19.7591145833333  L 32.6497395833333 19.7591145833333  C 32.3025173611111 19.7591145833333  32.12890625 19.5855034722222  32.12890625 19.23828125  L 32.12890625 16.9596354166667  C 32.12890625 16.0264756944444  31.4181857638889 15.2940538194444  29.9967447916667 14.7623697916667  C 28.5753038194444 14.2306857638889  27.0833333333333 13.96484375  25.5208333333333 13.96484375  C 22.4826388888889 13.96484375  20.0032552083333 14.9576822916667  18.0826822916667 16.943359375  C 16.162109375 18.9290364583333  15.2018229166667 21.5060763888889  15.2018229166667 24.6744791666667  C 15.2018229166667 27.9513888888889  16.1946614583333 30.6586371527778  18.1803385416667 32.7962239583333  C 20.166015625 34.9338107638889  22.6996527777778 36.0026041666667  25.78125 36.0026041666667  C 27.2569444444444 36.0026041666667  28.7543402777778 35.7421875  30.2734375 35.2213541666667  C 31.7925347222222 34.7005208333333  32.5520833333333 33.984375  32.5520833333333 33.0729166666667  L 32.5520833333333 30.7942708333333  C 32.5520833333333 30.6423611111111  32.6009114583333 30.517578125  32.6985677083333 30.419921875  C 32.7962239583333 30.322265625  32.91015625 30.2734375  33.0403645833333 30.2734375  L 36.9140625 30.2734375  C 37.0442708333333 30.2734375  37.1636284722222 30.322265625  37.2721354166667 30.419921875  Z M 33.0891927083333 5.82682291666667  C 30.517578125 4.72005208333333  27.8211805555556 4.16666666666667  25 4.16666666666667  C 22.1788194444444 4.16666666666667  19.482421875 4.72005208333333  16.9108072916667 5.82682291666667  C 14.3391927083333 6.93359375  12.1256510416667 8.41471354166667  10.2701822916667 10.2701822916667  C 8.41471354166667 12.1256510416667  6.93359375 14.3391927083333  5.82682291666667 16.9108072916667  C 4.72005208333333 19.482421875  4.16666666666667 22.1788194444444  4.16666666666667 25  C 4.16666666666667 27.8211805555556  4.72005208333333 30.517578125  5.82682291666667 33.0891927083333  C 6.93359375 35.6608072916667  8.41471354166667 37.8743489583333  10.2701822916667 39.7298177083333  C 12.1256510416667 41.5852864583333  14.3391927083333 43.06640625  16.9108072916667 44.1731770833333  C 19.482421875 45.2799479166667  22.1788194444444 45.8333333333333  25 45.8333333333333  C 27.8211805555556 45.8333333333333  30.517578125 45.2799479166667  33.0891927083333 44.1731770833333  C 35.6608072916667 43.06640625  37.8743489583333 41.5852864583333  39.7298177083333 39.7298177083333  C 41.5852864583333 37.8743489583333  43.06640625 35.6608072916667  44.1731770833333 33.0891927083333  C 45.2799479166667 30.517578125  45.8333333333333 27.8211805555556  45.8333333333333 25  C 45.8333333333333 22.1788194444444  45.2799479166667 19.482421875  44.1731770833333 16.9108072916667  C 43.06640625 14.3391927083333  41.5852864583333 12.1256510416667  39.7298177083333 10.2701822916667  C 37.8743489583333 8.41471354166667  35.6608072916667 6.93359375  33.0891927083333 5.82682291666667  Z M 46.6471354166667 12.451171875  C 48.8823784722222 16.2814670138889  50 20.4644097222222  50 25  C 50 29.5355902777778  48.8823784722222 33.7185329861111  46.6471354166667 37.548828125  C 44.4118923611111 41.3791232638889  41.3791232638889 44.4118923611111  37.548828125 46.6471354166667  C 33.7185329861111 48.8823784722222  29.5355902777778 50  25 50  C 20.4644097222222 50  16.2814670138889 48.8823784722222  12.451171875 46.6471354166667  C 8.62087673611111 44.4118923611111  5.58810763888889 41.3791232638889  3.35286458333333 37.548828125  C 1.11762152777778 33.7185329861111  0 29.5355902777778  0 25  C 0 20.4644097222222  1.11762152777778 16.2814670138889  3.35286458333333 12.451171875  C 5.58810763888889 8.62087673611111  8.62087673611111 5.58810763888888  12.451171875 3.35286458333333  C 16.2814670138889 1.11762152777777  20.4644097222222 0  25 0  C 29.5355902777778 0  33.7185329861111 1.11762152777777  37.548828125 3.35286458333333  C 41.3791232638889 5.58810763888888  44.4118923611111 8.62087673611111  46.6471354166667 12.451171875  Z " fill-rule="nonzero" fill="#000000" stroke="none" transform="matrix(1 0 0 1 70 1708 )" />
  </g>
</svg>