<?xml version="1.0" encoding="utf-8"?>
<svg version="1.1" xmlns:xlink="http://www.w3.org/1999/xlink" width="21px" height="16px" xmlns="http://www.w3.org/2000/svg">
  <g transform="matrix(1 0 0 1 -1127 -121 )">
    <path d="M 12.87890625 9.8125  C 13.9852764423077 8.96955128205128  14.5384615384615 7.9551282051282  14.5384615384615 6.76923076923077  C 14.5384615384615 5.58333333333333  13.9852764423077 4.56891025641026  12.87890625 3.72596153846154  C 11.7725360576923 2.88301282051282  10.4411057692308 2.46153846153846  8.88461538461539 2.46153846153846  C 7.328125 2.46153846153846  5.99669471153846 2.88301282051282  4.89032451923077 3.72596153846154  C 3.78395432692308 4.56891025641026  3.23076923076923 5.58333333333333  3.23076923076923 6.76923076923077  C 3.23076923076923 7.9551282051282  3.78395432692308 8.96955128205128  4.89032451923077 9.8125  C 5.99669471153846 10.6554487179487  7.328125 11.0769230769231  8.88461538461539 11.0769230769231  C 10.4411057692308 11.0769230769231  11.7725360576923 10.6554487179487  12.87890625 9.8125  Z M 20.5330528846154 13.9038461538462  C 20.8443509615385 14.1410256410256  21 14.4294871794872  21 14.7692307692308  C 21 15.1025641025641  20.8401442307692 15.3910256410256  20.5204326923077 15.6346153846154  C 20.2007211538462 15.8782051282051  19.8221153846154 16  19.3846153846154 16  C 18.9302884615385 16  18.5516826923077 15.8782051282051  18.2487980769231 15.6346153846154  L 13.9200721153846 12.3461538461538  C 12.4140625 13.1410256410256  10.7355769230769 13.5384615384615  8.88461538461539 13.5384615384615  C 7.68149038461539 13.5384615384615  6.53094951923077 13.3605769230769  5.43299278846154 13.0048076923077  C 4.33503605769231 12.6490384615385  3.38852163461538 12.1682692307692  2.59344951923077 11.5625  C 1.79837740384615 10.9567307692308  1.16736778846154 10.2355769230769  0.700420673076923 9.39903846153846  C 0.233473557692308 8.5625  0 7.68589743589743  0 6.76923076923077  C 0 5.8525641025641  0.233473557692308 4.97596153846154  0.700420673076923 4.13942307692308  C 1.16736778846154 3.30288461538461  1.79837740384615 2.58173076923077  2.59344951923077 1.97596153846154  C 3.38852163461538 1.37019230769231  4.33503605769231 0.889423076923077  5.43299278846154 0.533653846153847  C 6.53094951923077 0.177884615384615  7.68149038461539 0  8.88461538461539 0  C 10.0877403846154 0  11.23828125 0.177884615384615  12.3362379807692 0.533653846153847  C 13.4341947115385 0.889423076923077  14.3807091346154 1.37019230769231  15.17578125 1.97596153846154  C 15.9708533653846 2.58173076923077  16.6018629807692 3.30288461538461  17.0688100961538 4.13942307692308  C 17.5357572115385 4.97596153846154  17.7692307692308 5.8525641025641  17.7692307692308 6.76923076923077  C 17.7692307692308 8.17948717948718  17.2475961538462 9.45833333333333  16.2043269230769 10.6057692307692  L 20.5330528846154 13.9038461538462  Z " fill-rule="nonzero" fill="#000000" stroke="none" fill-opacity="0.458823529411765" transform="matrix(1 0 0 1 1127 121 )" />
  </g>
</svg>