<?xml version="1.0" encoding="utf-8"?>
<svg version="1.1" xmlns:xlink="http://www.w3.org/1999/xlink" width="23px" height="20px" xmlns="http://www.w3.org/2000/svg">
  <g transform="matrix(1 0 0 1 -333 -855 )">
    <path d="M 20.2855329949239 3.15625  C 21.1903553299492 3.05208333333333  22.0951776649746 2.79166666666666  23 2.375  C 22.3481387478849 3.39583333333333  21.5600676818951 4.265625  20.6357868020305 4.984375  C 20.6455160744501 5.13020833333333  20.6503807106599 5.34895833333333  20.6503807106599 5.640625  C 20.6503807106599 6.99479166666666  20.465524534687 8.34635416666666  20.0958121827411 9.6953125  C 19.7260998307953 11.0442708333333  19.1642343485618 12.3385416666667  18.4102157360406 13.578125  C 17.6561971235195 14.8177083333333  16.7586717428088 15.9140625  15.7176395939086 16.8671875  C 14.6766074450085 17.8203125  13.4215313028765 18.5807291666667  11.9524111675127 19.1484375  C 10.4832910321489 19.7161458333333  8.91201353637902 20  7.23857868020305 20  C 4.60194585448393 20  2.18908629441624 19.2447916666667  0 17.734375  C 0.340524534686971 17.7760416666667  0.719966159052454 17.796875  1.13832487309645 17.796875  C 3.32741116751269 17.796875  5.27813028764805 17.078125  6.99048223350254 15.640625  C 5.96890862944162 15.6197916666667  5.05435702199662 15.2838541666667  4.24682741116751 14.6328125  C 3.43929780033841 13.9817708333333  2.88472927241963 13.1510416666667  2.58312182741117 12.140625  C 2.90418781725888 12.1927083333333  3.20093062605753 12.21875  3.47335025380711 12.21875  C 3.8917089678511 12.21875  4.30520304568528 12.1614583333333  4.71383248730964 12.046875  C 3.62415397631134 11.8072916666667  2.72176395939086 11.2265625  2.00666243654822 10.3046875  C 1.29156091370558 9.3828125  0.934010152284264 8.3125  0.934010152284264 7.09375  L 0.934010152284264 7.03125  C 1.59560067681895 7.42708333333333  2.30583756345178 7.640625  3.06472081218274 7.671875  C 2.42258883248731 7.21354166666667  1.91180203045685 6.61458333333333  1.53236040609137 5.875  C 1.15291878172589 5.13541666666666  0.963197969543147 4.33333333333333  0.963197969543147 3.46875  C 0.963197969543147 2.55208333333333  1.17724196277496 1.703125  1.60532994923858 0.921875000000001  C 2.78257191201354 2.47395833333333  4.21520727580372 3.71614583333333  5.90323604060914 4.6484375  C 7.59126480541455 5.58072916666667  9.39847715736041 6.09895833333333  11.3248730964467 6.203125  C 11.2470389170897 5.80729166666667  11.2081218274112 5.421875  11.2081218274112 5.046875  C 11.2081218274112 3.65104166666666  11.6678299492386 2.4609375  12.5872461928934 1.4765625  C 13.5066624365482 0.492187500000001  14.6182318104907 0  15.9219543147208 0  C 17.2840524534687 0  18.4321065989848 0.531250000000001  19.366116751269 1.59375  C 20.4266074450085 1.375  21.4238578680203 0.96875  22.3578680203046 0.375000000000001  C 21.9978849407783 1.57291666666666  21.3071065989848 2.5  20.2855329949239 3.15625  Z " fill-rule="nonzero" fill="#000000" stroke="none" transform="matrix(1 0 0 1 333 855 )" />
  </g>
</svg>