<?xml version="1.0" encoding="utf-8"?>
<svg version="1.1" xmlns:xlink="http://www.w3.org/1999/xlink" width="15px" height="20px" xmlns="http://www.w3.org/2000/svg">
  <g transform="matrix(1 0 0 1 -301 -855 )">
    <path d="M 11.0416666666667 0  C 12.7430555555556 0  14.0625 0.0480769230769229  15 0.144230769230769  L 15 3.31730769230769  L 12.2743055555556 3.31730769230769  C 11.2789351851852 3.31730769230769  10.6076388888889 3.46153846153846  10.2604166666667 3.75  C 9.91319444444444 4.03846153846154  9.73958333333333 4.47115384615385  9.73958333333333 5.04807692307692  L 9.73958333333333 7.31971153846154  L 14.8263888888889 7.31971153846154  L 14.1493055555556 10.8774038461538  L 9.73958333333333 10.8774038461538  L 9.73958333333333 20  L 4.42708333333333 20  L 4.42708333333333 10.8774038461538  L 0 10.8774038461538  L 0 7.31971153846154  L 4.42708333333333 7.31971153846154  L 4.42708333333333 4.69951923076923  C 4.42708333333333 3.20913461538461  5.02893518518519 2.05328525641026  6.23263888888889 1.23197115384615  C 7.43634259259259 0.410657051282053  9.03935185185185 0  11.0416666666667 0  Z " fill-rule="nonzero" fill="#000000" stroke="none" transform="matrix(1 0 0 1 301 855 )" />
  </g>
</svg>