<?xml version="1.0" encoding="utf-8"?>
<svg version="1.1" xmlns:xlink="http://www.w3.org/1999/xlink" width="23px" height="20px" xmlns="http://www.w3.org/2000/svg">
  <g transform="matrix(1 0 0 1 -264 -855 )">
    <path d="M 3.548828125 7.70833333333333  L 3.548828125 16.7447916666667  L 7.0078125 16.7447916666667  L 7.0078125 7.70833333333333  L 3.548828125 7.70833333333333  Z M 6.693359375 6.03515625  C 7.052734375 5.73567708333333  7.232421875 5.36458333333333  7.232421875 4.921875  C 7.22243923611111 4.47048611111111  7.04275173611111 4.09722222222222  6.693359375 3.80208333333333  C 6.34396701388889 3.50694444444444  5.87977430555556 3.359375  5.30078125 3.359375  C 4.72178819444445 3.359375  4.25010850694445 3.50694444444444  3.8857421875 3.80208333333333  C 3.52137586805556 4.09722222222222  3.33919270833333 4.47048611111111  3.33919270833333 4.921875  C 3.33919270833333 5.36458333333333  3.51638454861111 5.73567708333333  3.87076822916667 6.03515625  C 4.22515190972222 6.33463541666667  4.68684895833333 6.484375  5.255859375 6.484375  L 5.27083333333333 6.484375  C 5.85980902777778 6.484375  6.333984375 6.33463541666667  6.693359375 6.03515625  Z M 15.9921875 11.9140625  L 15.9921875 16.7447916666667  L 19.451171875 16.7447916666667  L 19.451171875 11.5625  C 19.451171875 10.2256944444444  19.0868055555556 9.21440972222222  18.3580729166667 8.52864583333333  C 17.6293402777778 7.84288194444444  16.666015625 7.5  15.4680989583333 7.5  C 14.1104600694444 7.5  13.0672743055556 8.0078125  12.3385416666667 9.0234375  L 12.3684895833333 9.0234375  L 12.3684895833333 7.70833333333333  L 8.90950520833333 7.70833333333333  C 8.939453125 8.28125  8.939453125 11.2934027777778  8.90950520833333 16.7447916666667  L 12.3684895833333 16.7447916666667  L 12.3684895833333 11.6927083333333  C 12.3684895833333 11.3628472222222  12.4034288194444 11.1197916666667  12.4733072916667 10.9635416666667  C 12.623046875 10.6597222222222  12.84765625 10.4014756944444  13.1471354166667 10.1888020833333  C 13.4466145833333 9.97612847222222  13.8159722222222 9.86979166666667  14.2552083333333 9.86979166666667  C 15.4131944444444 9.86979166666667  15.9921875 10.5512152777778  15.9921875 11.9140625  Z M 21.7347005208333 1.10026041666667  C 22.5782335069444 1.83376736111111  23 2.71701388888889  23 3.75  L 23 16.25  C 23 17.2829861111111  22.5782335069444 18.1662326388889  21.7347005208333 18.8997395833333  C 20.8911675347222 19.6332465277778  19.8754340277778 20  18.6875 20  L 4.3125 20  C 3.12456597222222 20  2.10883246527778 19.6332465277778  1.26529947916667 18.8997395833333  C 0.421766493055555 18.1662326388889  0 17.2829861111111  0 16.25  L 0 3.75  C 0 2.71701388888889  0.421766493055555 1.83376736111111  1.26529947916667 1.10026041666667  C 2.10883246527778 0.366753472222221  3.12456597222222 0  4.3125 0  L 18.6875 0  C 19.8754340277778 0  20.8911675347222 0.366753472222221  21.7347005208333 1.10026041666667  Z " fill-rule="nonzero" fill="#000000" stroke="none" transform="matrix(1 0 0 1 264 855 )" />
  </g>
</svg>